<?xml version="1.0" encoding="UTF-8"?>
<svg xmlns="http://www.w3.org/2000/svg" viewBox="0 0 256.5 256.5">
  <path fill="#E01E5A" d="M54 162c0 14.912-12.088 27-27 27S0 176.912 0 162s12.088-27 27-27h27v27z"/>
  <path fill="#E01E5A" d="M67.5 162c0-14.912 12.088-27 27-27s27 12.088 27 27v67.5c0 14.912-12.088 27-27 27s-27-12.088-27-27V162z"/>
  <path fill="#36C5F0" d="M94.5 54c-14.912 0-27-12.088-27-27S79.588 0 94.5 0s27 12.088 27 27v27h-27z"/>
  <path fill="#36C5F0" d="M94.5 67.5c14.912 0 27 12.088 27 27s-12.088 27-27 27H27c-14.912 0-27-12.088-27-27s12.088-27 27-27h67.5z"/>
  <path fill="#2EB67D" d="M202.5 94.5c0-14.912 12.088-27 27-27s27 12.088 27 27-12.088 27-27 27h-27v-27z"/>
  <path fill="#2EB67D" d="M189 94.5c0 14.912-12.088 27-27 27s-27-12.088-27-27V27c0-14.912 12.088-27 27-27s27 12.088 27 27v67.5z"/>
  <path fill="#ECB22E" d="M162 202.5c14.912 0 27 12.088 27 27s-12.088 27-27 27-27-12.088-27-27v-27h27z"/>
  <path fill="#ECB22E" d="M162 189c-14.912 0-27-12.088-27-27s12.088-27 27-27h67.5c14.912 0 27 12.088 27 27s-12.088 27-27 27H162z"/>
</svg>
